# xmcd
#
# Track frame offsets:
#	150
#	13268
#	26193
#	39081
#	51296
#	62741
#	75268
#	88853
#	98688
#	108795
#	126246
#	141391
#	153771
#	165901
#	177358
#	190536
#	204908
#	217961
#	226543
#	237966
#	252708
#	263806
#	273058
#	283223
#	297411
#
# Disc length: 4163 seconds
#
# Revision: 2
# Processed by: cddbd v1.4PL0 Copyright (c) Steve Scherf et al.
# Submitted via: MusicWizard 6.0.0
#
DISCID=52104119
DTITLE=Various Artist - 100 Country Greats CD 4/4
DYEAR=1999
DGENRE=Country
TTITLE0=Crystal Gayle - Talking In Your Sleep
TTITLE1=Slim Whitman - Release Me
TTITLE2=Merle Haggard - The Fightin' Side Of Me
TTITLE3=Willie Nelson - Seven Spanish Angels (live)
TTITLE4=George Jones - Talk Back Trembling Lips
TTITLE5=Wanda Jackson - Crazy
TTITLE6=Kenny Rogers - Ruby, Don't Take Your Love To Town
TTITLE7=Hank Locklin - Please Help Me I'm Falling
TTITLE8=Porter Wagoner - Green, Green Grass Of Home
TTITLE9=Deborah Allen - Baby I Lied
TTITLE10=Ed Bruce - Mamas, Don't Let Your Babies Grow Up To Be Cowboys
TTITLE11=Mickey Gilley - Make The World Go Away
TTITLE12=Johnny Lee - Hey Bartender
TTITLE13=Sandy Posey - Single Girl
TTITLE14=Ray Kennedy - What A Way To Go
TTITLE15=Holly Dunn - Strangers Again
TTITLE16=Lynn Anderson - (I Never Promised You A) Rose Garden
TTITLE17=Faron Young - Together Again
TTITLE18=Timi Yuro and Willie Nelson - There's A Way
TTITLE19=Lee Greenwood - God Bless The U.S.A.
TTITLE20=Roger Miller - Husbands And Wives
TTITLE21=The Kendalls - Blue, Blue Day
TTITLE22=Patsy Cline - Three Cigarettes In An Ashtray
TTITLE23=Conway Twitty - You've Never Been This Far Before
TTITLE24=Jennie C. Riley - Harper Valley P.T.A.
EXTD=(C)1999 Castle Music Ltd England (t]\nupc Pbx Cd 442/4 Year: 1999
EXTT0=
EXTT1=
EXTT2=
EXTT3=
EXTT4=
EXTT5=
EXTT6=
EXTT7=
EXTT8=
EXTT9=
EXTT10=
EXTT11=
EXTT12=
EXTT13=
EXTT14=
EXTT15=
EXTT16=
EXTT17=
EXTT18=
EXTT19=
EXTT20=
EXTT21=
EXTT22=
EXTT23=
EXTT24=
PLAYORDER=
